<?xml version="1.0" encoding="iso-8859-1"?>
<!-- Uploaded to: SVG Repo, www.svgrepo.com, Generator: SVG Repo Mixer Tools -->
<svg fill="#000000" version="1.1" id="Layer_1" xmlns="http://www.w3.org/2000/svg" xmlns:xlink="http://www.w3.org/1999/xlink" 
	 viewBox="0 0 472.615 472.615" xml:space="preserve">
<g>
	<g>
		<polygon points="438.154,4.332 403.692,45.686 403.692,393.824 472.615,393.824 472.615,45.686 		"/>
	</g>
</g>
<g>
	<g>
		<rect x="403.692" y="413.519" width="68.923" height="59.077"/>
	</g>
</g>
<g>
	<g>
		<path d="M0,0v472.615h374.154V0H0z M98.462,206.747v-19.692h177.231v19.692H98.462z M265.398,295.362l-78.321,56.764
			l-78.321-56.764H265.398z M143.411,344.797l-54.796,54.796v-94.509L143.411,344.797z M102.539,413.516l57.018-57.018l27.52,19.945
			l27.52-19.945l57.018,57.018H102.539z M285.538,399.592l-54.796-54.796l54.796-39.714V399.592z M324.923,147.67H49.231v-19.692
			h275.692V147.67z M324.923,88.593H49.231V68.9h275.692V88.593z"/>
	</g>
</g>
</svg>